<svg width="46" class="xs:w-36 xs:h-36" height="39" viewBox="0 0 46 39" fill="none" xmlns="http://www.w3.org/2000/svg"> <path d="M6.64453 34.8086C4.69141 34.8086 3.21354 34.3203 2.21094 33.3438C1.20833 32.3672 0.707031 30.9023 0.707031 28.9492V6.42969C0.707031 4.47656 1.20833 3.01172 2.21094 2.03516C3.21354 1.04557 4.69141 0.550781 6.64453 0.550781H31.9766C33.9557 0.550781 35.4401 1.04557 36.4297 2.03516C37.4193 3.02474 37.9141 4.48958 37.9141 6.42969V16.8789C37.6406 16.8398 37.3672 16.8073 37.0938 16.7812C36.8203 16.7552 36.5469 16.7422 36.2734 16.7422C36 16.7422 35.7266 16.7552 35.4531 16.7812C35.1797 16.8073 34.8997 16.8398 34.6133 16.8789V11.7812C34.6133 10.9479 34.3919 10.3229 33.9492 9.90625C33.5195 9.48958 32.9076 9.28125 32.1133 9.28125H6.48828C5.69401 9.28125 5.08854 9.48958 4.67188 9.90625C4.25521 10.3229 4.04688 10.9479 4.04688 11.7812V28.9883C4.04688 29.8346 4.25521 30.4661 4.67188 30.8828C5.08854 31.2995 5.69401 31.5078 6.48828 31.5078H24.6133C24.7174 32.0938 24.8802 32.6667 25.1016 33.2266C25.3229 33.7865 25.5898 34.3138 25.9023 34.8086H6.64453ZM15.7266 15.7852C15.401 15.7852 15.1732 15.7266 15.043 15.6094C14.9128 15.4922 14.8477 15.2708 14.8477 14.9453V13.8516C14.8477 13.526 14.9128 13.3047 15.043 13.1875C15.1732 13.0573 15.401 12.9922 15.7266 12.9922H16.8203C17.1458 12.9922 17.3672 13.0573 17.4844 13.1875C17.6146 13.3047 17.6797 13.526 17.6797 13.8516V14.9453C17.6797 15.2708 17.6146 15.4922 17.4844 15.6094C17.3672 15.7266 17.1458 15.7852 16.8203 15.7852H15.7266ZM21.8008 15.7852C21.4753 15.7852 21.2474 15.7266 21.1172 15.6094C21 15.4922 20.9414 15.2708 20.9414 14.9453V13.8516C20.9414 13.526 21 13.3047 21.1172 13.1875C21.2474 13.0573 21.4753 12.9922 21.8008 12.9922H22.8945C23.2331 12.9922 23.4609 13.0573 23.5781 13.1875C23.7083 13.3047 23.7734 13.526 23.7734 13.8516V14.9453C23.7734 15.2708 23.7083 15.4922 23.5781 15.6094C23.4609 15.7266 23.2331 15.7852 22.8945 15.7852H21.8008ZM27.9141 15.7852C27.5755 15.7852 27.3411 15.7266 27.2109 15.6094C27.0938 15.4922 27.0352 15.2708 27.0352 14.9453V13.8516C27.0352 13.526 27.0938 13.3047 27.2109 13.1875C27.3411 13.0573 27.5755 12.9922 27.9141 12.9922H28.9883C29.3138 12.9922 29.5417 13.0573 29.6719 13.1875C29.8021 13.3047 29.8672 13.526 29.8672 13.8516V14.9453C29.8672 15.2708 29.8021 15.4922 29.6719 15.6094C29.5417 15.7266 29.3138 15.7852 28.9883 15.7852H27.9141ZM9.65234 21.7812C9.3138 21.7812 9.07943 21.7227 8.94922 21.6055C8.83203 21.4753 8.77344 21.2474 8.77344 20.9219V19.8477C8.77344 19.5221 8.83203 19.3008 8.94922 19.1836C9.07943 19.0664 9.3138 19.0078 9.65234 19.0078H10.7266C11.0521 19.0078 11.2799 19.0664 11.4102 19.1836C11.5404 19.3008 11.6055 19.5221 11.6055 19.8477V20.9219C11.6055 21.2474 11.5404 21.4753 11.4102 21.6055C11.2799 21.7227 11.0521 21.7812 10.7266 21.7812H9.65234ZM15.7266 21.7812C15.401 21.7812 15.1732 21.7227 15.043 21.6055C14.9128 21.4753 14.8477 21.2474 14.8477 20.9219V19.8477C14.8477 19.5221 14.9128 19.3008 15.043 19.1836C15.1732 19.0664 15.401 19.0078 15.7266 19.0078H16.8203C17.1458 19.0078 17.3672 19.0664 17.4844 19.1836C17.6146 19.3008 17.6797 19.5221 17.6797 19.8477V20.9219C17.6797 21.2474 17.6146 21.4753 17.4844 21.6055C17.3672 21.7227 17.1458 21.7812 16.8203 21.7812H15.7266ZM21.8008 21.7812C21.4753 21.7812 21.2474 21.7227 21.1172 21.6055C21 21.4753 20.9414 21.2474 20.9414 20.9219V19.8477C20.9414 19.5221 21 19.3008 21.1172 19.1836C21.2474 19.0664 21.4753 19.0078 21.8008 19.0078H22.8945C23.2331 19.0078 23.4609 19.0664 23.5781 19.1836C23.7083 19.3008 23.7734 19.5221 23.7734 19.8477V20.9219C23.7734 21.2474 23.7083 21.4753 23.5781 21.6055C23.4609 21.7227 23.2331 21.7812 22.8945 21.7812H21.8008ZM9.65234 27.7773C9.3138 27.7773 9.07943 27.7188 8.94922 27.6016C8.83203 27.4844 8.77344 27.263 8.77344 26.9375V25.8438C8.77344 25.5052 8.83203 25.2773 8.94922 25.1602C9.07943 25.043 9.3138 24.9844 9.65234 24.9844H10.7266C11.0521 24.9844 11.2799 25.043 11.4102 25.1602C11.5404 25.2773 11.6055 25.5052 11.6055 25.8438V26.9375C11.6055 27.263 11.5404 27.4844 11.4102 27.6016C11.2799 27.7188 11.0521 27.7773 10.7266 27.7773H9.65234ZM15.7266 27.7773C15.401 27.7773 15.1732 27.7188 15.043 27.6016C14.9128 27.4844 14.8477 27.263 14.8477 26.9375V25.8438C14.8477 25.5052 14.9128 25.2773 15.043 25.1602C15.1732 25.043 15.401 24.9844 15.7266 24.9844H16.8203C17.1458 24.9844 17.3672 25.043 17.4844 25.1602C17.6146 25.2773 17.6797 25.5052 17.6797 25.8438V26.9375C17.6797 27.263 17.6146 27.4844 17.4844 27.6016C17.3672 27.7188 17.1458 27.7773 16.8203 27.7773H15.7266ZM21.8008 27.7773C21.4753 27.7773 21.2474 27.7188 21.1172 27.6016C21 27.4844 20.9414 27.263 20.9414 26.9375V25.8438C20.9414 25.5052 21 25.2773 21.1172 25.1602C21.2474 25.043 21.4753 24.9844 21.8008 24.9844H22.8945C23.2331 24.9844 23.4609 25.043 23.5781 25.1602C23.7083 25.2773 23.7734 25.5052 23.7734 25.8438V26.9375C23.7734 27.263 23.7083 27.4844 23.5781 27.6016C23.4609 27.7188 23.2331 27.7773 22.8945 27.7773H21.8008ZM36.2734 38.2461C34.9844 38.2461 33.7669 37.9987 32.6211 37.5039C31.4753 37.0221 30.4661 36.3451 29.5938 35.4727C28.7344 34.6003 28.0573 33.5911 27.5625 32.4453C27.0677 31.2995 26.8203 30.082 26.8203 28.793C26.8203 27.0612 27.25 25.4792 28.1094 24.0469C28.9688 22.6146 30.1081 21.4753 31.5273 20.6289C32.9596 19.7695 34.5417 19.3398 36.2734 19.3398C37.9922 19.3398 39.5677 19.7695 41 20.6289C42.4453 21.4753 43.5911 22.6146 44.4375 24.0469C45.2969 25.4792 45.7266 27.0612 45.7266 28.793C45.7266 30.082 45.4727 31.293 44.9648 32.4258C44.4701 33.5716 43.7865 34.5807 42.9141 35.4531C42.0417 36.3255 41.0326 37.0091 39.8867 37.5039C38.7539 37.9987 37.5495 38.2461 36.2734 38.2461ZM35.1797 33.9102C35.6354 33.9102 35.9805 33.7539 36.2148 33.4414L41.5664 26.0195C41.6576 25.9023 41.7227 25.7786 41.7617 25.6484C41.8138 25.5182 41.8398 25.401 41.8398 25.2969C41.8398 24.9453 41.7161 24.6523 41.4688 24.418C41.2214 24.1836 40.9284 24.0664 40.5898 24.0664C40.1471 24.0664 39.7956 24.2487 39.5352 24.6133L35.1016 30.7461L32.9141 28.3438C32.8099 28.2266 32.6797 28.1289 32.5234 28.0508C32.3672 27.9727 32.1849 27.9336 31.9766 27.9336C31.638 27.9336 31.3451 28.0508 31.0977 28.2852C30.8503 28.5195 30.7266 28.819 30.7266 29.1836C30.7266 29.3398 30.7526 29.4961 30.8047 29.6523C30.8698 29.8086 30.9609 29.9518 31.0781 30.082L34.1836 33.4805C34.3138 33.6237 34.4701 33.7279 34.6523 33.793C34.8346 33.8711 35.0104 33.9102 35.1797 33.9102Z" fill="#1F2022"></path> </svg>