<svg class="xs:w-36 xs:h-36" width="46" height="33" viewBox="0 0 46 33" fill="none" xmlns="http://www.w3.org/2000/svg"> <path d="M6.64453 32.7539C4.69141 32.7539 3.21354 32.2591 2.21094 31.2695C1.20833 30.2799 0.707031 28.8151 0.707031 26.875V6.48438C0.707031 4.54427 1.18229 3.07943 2.13281 2.08984C3.09635 1.10026 4.4375 0.605469 6.15625 0.605469H39.7109C41.651 0.605469 43.1224 1.10026 44.125 2.08984C45.1406 3.07943 45.6484 4.54427 45.6484 6.48438V26.875C45.6484 28.8151 45.1667 30.2799 44.2031 31.2695C43.2526 32.2591 41.918 32.7539 40.1992 32.7539H6.64453ZM6.60547 29.6094H39.75C40.6224 29.6094 41.2995 29.375 41.7812 28.9062C42.263 28.4375 42.5039 27.7474 42.5039 26.8359V6.52344C42.5039 5.61198 42.263 4.92188 41.7812 4.45312C41.2995 3.97135 40.6224 3.73047 39.75 3.73047H6.60547C5.73307 3.73047 5.05599 3.97135 4.57422 4.45312C4.09245 4.92188 3.85156 5.60547 3.85156 6.50391V26.8164C3.85156 27.7409 4.09245 28.4375 4.57422 28.9062C5.05599 29.375 5.73307 29.6094 6.60547 29.6094ZM23.168 21.6406C22.543 21.6406 21.944 21.5234 21.3711 21.2891C20.7982 21.0417 20.2383 20.6771 19.6914 20.1953L2.38672 4.58984L4.45703 2.51953L21.4688 17.832C22.0026 18.3268 22.569 18.5742 23.168 18.5742C23.7669 18.5742 24.3398 18.3268 24.8867 17.832L41.8984 2.51953L43.9688 4.58984L26.6445 20.1953C26.0977 20.6771 25.5378 21.0417 24.9648 21.2891C24.3919 21.5234 23.793 21.6406 23.168 21.6406ZM4.73047 30.2344L2.66016 28.1445L15.7656 15.0781L17.8359 17.1289L4.73047 30.2344ZM41.625 30.2539L28.5 17.1289L30.5898 15.0781L43.6953 28.1641L41.625 30.2539Z" fill="#1F2022"></path> </svg>