<svg class="xs:w-36 xs:h-36" width="46" height="39" viewBox="0 0 46 39" fill="none" xmlns="http://www.w3.org/2000/svg"> <path d="M19.7148 38.6445C21.0169 38.6445 22.2865 38.5078 23.5234 38.2344C24.7604 37.974 25.9388 37.5964 27.0586 37.1016C26.7461 36.75 26.4596 36.3724 26.1992 35.9688C25.9258 35.5781 25.6849 35.168 25.4766 34.7383C25.2682 34.8424 25.0469 34.9271 24.8125 34.9922C24.5781 35.0703 24.3503 35.1354 24.1289 35.1875C24.5065 34.862 24.832 34.4583 25.1055 33.9766C24.8971 33.4688 24.7214 32.9544 24.5781 32.4336C24.4219 31.9128 24.3047 31.3854 24.2266 30.8516C23.3021 32.8438 22.2214 34.1133 20.9844 34.6602V28.8789C21.5443 28.918 22.0911 28.957 22.625 28.9961C23.1458 29.0352 23.6536 29.0938 24.1484 29.1719C24.1615 28.7552 24.194 28.3385 24.2461 27.9219C24.2982 27.4922 24.3763 27.0951 24.4805 26.7305C23.9206 26.6393 23.3477 26.5612 22.7617 26.4961C22.1758 26.431 21.5833 26.3919 20.9844 26.3789V20.9102H27.7617C28.2565 20.3893 28.8034 19.9206 29.4023 19.5039C30.0013 19.0742 30.6328 18.7031 31.2969 18.3906H29.0898C29.0378 17.1927 28.9336 16.0469 28.7773 14.9531C28.6211 13.8594 28.4193 12.8177 28.1719 11.8281C29.9167 11.2812 31.349 10.5781 32.4688 9.71875C33.3151 10.7995 34.0247 11.9844 34.5977 13.2734C35.1706 14.5625 35.5612 15.9167 35.7695 17.3359C36.1211 17.3099 36.5768 17.3229 37.1367 17.375C37.6966 17.4141 38.1719 17.4727 38.5625 17.5508C38.3021 15.194 37.6315 13 36.5508 10.9688C35.4701 8.92448 34.0833 7.13411 32.3906 5.59766C30.6849 4.0612 28.7578 2.86328 26.6094 2.00391C24.4479 1.13151 22.1562 0.695312 19.7344 0.695312C17.1432 0.695312 14.7018 1.1901 12.4102 2.17969C10.1185 3.16927 8.10026 4.53646 6.35547 6.28125C4.61068 8.02604 3.24349 10.0443 2.25391 12.3359C1.2513 14.6276 0.75 17.069 0.75 19.6602C0.75 22.2643 1.2513 24.7122 2.25391 27.0039C3.24349 29.2826 4.61068 31.2943 6.35547 33.0391C8.08724 34.7839 10.099 36.151 12.3906 37.1406C14.6823 38.1432 17.1237 38.6445 19.7148 38.6445ZM30.8086 7.90234C30.3529 8.21484 29.8451 8.50781 29.2852 8.78125C28.7122 9.04167 28.0938 9.27604 27.4297 9.48438C27.026 8.33854 26.5508 7.31641 26.0039 6.41797C25.457 5.50651 24.8581 4.73828 24.207 4.11328C25.457 4.46484 26.6419 4.96615 27.7617 5.61719C28.8685 6.25521 29.8841 7.01693 30.8086 7.90234ZM24.9688 10.1094C24.3438 10.2135 23.7057 10.3047 23.0547 10.3828C22.3906 10.4479 21.7005 10.4935 20.9844 10.5195V4.66016C21.7656 4.9987 22.5013 5.64974 23.1914 6.61328C23.8685 7.5638 24.4609 8.72917 24.9688 10.1094ZM18.4648 10.5195C17.7487 10.4935 17.0651 10.4479 16.4141 10.3828C15.75 10.3047 15.1055 10.2135 14.4805 10.1094C14.9883 8.72917 15.5872 7.5638 16.2773 6.61328C16.9544 5.64974 17.6836 4.9987 18.4648 4.66016V10.5195ZM12 9.48438C10.6719 9.06771 9.55859 8.54036 8.66016 7.90234C9.57161 7.02995 10.5872 6.27474 11.707 5.63672C12.8138 4.98568 13.9922 4.47786 15.2422 4.11328C14.5911 4.73828 13.9922 5.50651 13.4453 6.41797C12.8854 7.32943 12.4036 8.35156 12 9.48438ZM26.5312 18.4102H20.9844V13.0195C21.8047 12.9935 22.612 12.9349 23.4062 12.8438C24.2005 12.7526 24.9622 12.6354 25.6914 12.4922C25.9258 13.3906 26.1146 14.3346 26.2578 15.3242C26.401 16.3138 26.4922 17.3424 26.5312 18.4102ZM18.4648 18.4102H12.918C12.957 17.3424 13.0482 16.3138 13.1914 15.3242C13.3346 14.3346 13.5234 13.3906 13.7578 12.4922C14.5 12.6354 15.2682 12.7526 16.0625 12.8438C16.8438 12.9349 17.6445 12.9935 18.4648 13.0195V18.4102ZM10.3398 18.4102H3.5625C3.67969 16.7956 4.04427 15.2526 4.65625 13.7812C5.25521 12.2969 6.03646 10.9492 7 9.73828C8.13281 10.5846 9.55859 11.2812 11.2773 11.8281C11.0169 12.8177 10.8086 13.8659 10.6523 14.9727C10.4961 16.0664 10.3919 17.2122 10.3398 18.4102ZM18.4648 26.3789C17.6445 26.4049 16.8438 26.4701 16.0625 26.5742C15.2682 26.6654 14.513 26.7826 13.7969 26.9258C13.5495 26.0013 13.3542 25.0378 13.2109 24.0352C13.0547 23.0195 12.957 21.9779 12.918 20.9102H18.4648V26.3789ZM11.2773 27.5703C9.55859 28.1172 8.14583 28.8073 7.03906 29.6406C6.0625 28.4167 5.26823 27.069 4.65625 25.5977C4.04427 24.1133 3.67969 22.5508 3.5625 20.9102H10.3398C10.3919 22.1211 10.4961 23.2865 10.6523 24.4062C10.8086 25.526 11.0169 26.5807 11.2773 27.5703ZM18.4648 34.6602C17.6836 34.3216 16.9609 33.6836 16.2969 32.7461C15.6198 31.7956 15.0273 30.6497 14.5195 29.3086C15.7044 29.0872 17.0195 28.944 18.4648 28.8789V34.6602ZM15.2031 35.1875C13.9792 34.8359 12.8203 34.3411 11.7266 33.7031C10.6198 33.0651 9.61719 32.3229 8.71875 31.4766C9.59115 30.8776 10.6914 30.3568 12.0195 29.9141C12.4232 31.0208 12.8984 32.0234 13.4453 32.9219C13.9792 33.8203 14.5651 34.5755 15.2031 35.1875ZM36.1602 38.7812C37.4492 38.7812 38.6667 38.5339 39.8125 38.0391C40.9583 37.5573 41.9609 36.8802 42.8203 36.0078C43.6927 35.1354 44.3763 34.1263 44.8711 32.9805C45.3659 31.8346 45.6133 30.6172 45.6133 29.3281C45.6133 27.5964 45.1836 26.0143 44.3242 24.582C43.4648 23.1497 42.3255 22.0104 40.9062 21.1641C39.474 20.3047 37.8919 19.875 36.1602 19.875C34.4414 19.875 32.8659 20.3047 31.4336 21.1641C29.9883 22.0104 28.8424 23.1497 27.9961 24.582C27.1367 26.0143 26.707 27.5964 26.707 29.3281C26.707 30.6172 26.9609 31.8346 27.4688 32.9805C27.9635 34.1133 28.6471 35.1159 29.5195 35.9883C30.3919 36.8607 31.401 37.5443 32.5469 38.0391C33.6797 38.5339 34.8841 38.7812 36.1602 38.7812ZM34.1094 34.9727C33.888 34.7513 33.7773 34.4844 33.7773 34.1719C33.7773 33.8594 33.901 33.5924 34.1484 33.3711L38.4062 29.3477L34.1484 25.3242C33.9271 25.1159 33.8229 24.8555 33.8359 24.543C33.8359 24.2174 33.9466 23.9505 34.168 23.7422C34.3763 23.5469 34.6302 23.4557 34.9297 23.4688C35.2161 23.4688 35.4766 23.5794 35.7109 23.8008L40.3984 28.2148C40.776 28.5664 40.9583 28.957 40.9453 29.3867C40.9193 29.8034 40.737 30.1745 40.3984 30.5L35.7109 34.9336C35.4896 35.1289 35.2227 35.2266 34.9102 35.2266C34.5846 35.2396 34.3177 35.1549 34.1094 34.9727Z" fill="#1F2022"></path></svg>