<svg width="20" height="20" viewBox="0 0 24 24" fill="none" xmlns="http://www.w3.org/2000/svg"><path d="M17.6459 9.82629V7.59021C17.6459 4.50282 15.1431 2 12.0557 2C8.96828 2 6.46545 4.50282 6.46545 7.59021V9.82629M12.0557 14.8575V17.0936M8.47793 22.1248H15.6334C17.5119 22.1248 18.4511 22.1248 19.1686 21.7592C19.7997 21.4376 20.3129 20.9245 20.6344 20.2934C21 19.5759 21 18.6366 21 16.7582V15.1929C21 13.3144 21 12.3752 20.6344 11.6577C20.3129 11.0266 19.7997 10.5134 19.1686 10.1919C18.4511 9.82629 17.5119 9.82629 15.6334 9.82629H8.47793C6.59944 9.82629 5.6602 9.82629 4.94271 10.1919C4.31159 10.5134 3.79848 11.0266 3.47691 11.6577C3.11133 12.3752 3.11133 13.3144 3.11133 15.1929V16.7582C3.11133 18.6366 3.11133 19.5759 3.47691 20.2934C3.79848 20.9245 4.31159 21.4376 4.94271 21.7592C5.6602 22.1248 6.59944 22.1248 8.47793 22.1248Z" stroke="#222222" stroke-width="1.5" stroke-linecap="round" stroke-linejoin="round" class="paint-fill-ffd"></path></svg>