<svg class="xs:w-36 xs:h-36" width="32" height="38" viewBox="0 0 32 38" fill="none" xmlns="http://www.w3.org/2000/svg"><path d="M16.2266 37.8789C16.0703 37.8789 15.875 37.8464 15.6406 37.7812C15.4193 37.7161 15.1914 37.6185 14.957 37.4883C12.3138 36.0169 10.0807 34.7083 8.25781 33.5625C6.44792 32.4297 4.98958 31.3229 3.88281 30.2422C2.77604 29.1615 1.96875 27.9961 1.46094 26.7461C0.966146 25.4961 0.71875 24.0312 0.71875 22.3516V8.28906C0.71875 7.2474 0.933594 6.49219 1.36328 6.02344C1.80599 5.55469 2.44401 5.14453 3.27734 4.79297C3.8112 4.57161 4.58594 4.27214 5.60156 3.89453C6.61719 3.50391 7.71094 3.09375 8.88281 2.66406C10.0547 2.23438 11.1484 1.84375 12.1641 1.49219C13.1797 1.1276 13.9544 0.873698 14.4883 0.730469C14.7487 0.652344 15.0286 0.580729 15.3281 0.515625C15.6276 0.4375 15.9271 0.398438 16.2266 0.398438C16.513 0.398438 16.806 0.43099 17.1055 0.496094C17.4049 0.548177 17.6914 0.626302 17.9648 0.730469C18.4857 0.89974 19.2539 1.16667 20.2695 1.53125C21.2982 1.88281 22.3919 2.27344 23.5508 2.70312C24.7227 3.11979 25.8164 3.51693 26.832 3.89453C27.8607 4.27214 28.6354 4.57161 29.1562 4.79297C30.0156 5.15755 30.6536 5.57422 31.0703 6.04297C31.5 6.4987 31.7148 7.2474 31.7148 8.28906V22.3516C31.7148 24.0312 31.4609 25.5026 30.9531 26.7656C30.4583 28.0156 29.6576 29.181 28.5508 30.2617C27.457 31.3424 25.9987 32.4492 24.1758 33.582C22.3659 34.7279 20.1393 36.0299 17.4961 37.4883C17.2617 37.6185 17.0273 37.7161 16.793 37.7812C16.5716 37.8464 16.3828 37.8789 16.2266 37.8789ZM16.2266 34.2266C16.3698 34.2266 16.5195 34.194 16.6758 34.1289C16.832 34.0768 17.0469 33.9727 17.3203 33.8164C19.4297 32.5273 21.2005 31.4271 22.6328 30.5156C24.0651 29.5911 25.2109 28.7188 26.0703 27.8984C26.9297 27.0781 27.5417 26.1797 27.9062 25.2031C28.2839 24.2266 28.4727 23.0417 28.4727 21.6484V8.875C28.4727 8.54948 28.4336 8.30859 28.3555 8.15234C28.2773 7.99609 28.1081 7.86589 27.8477 7.76172C27.2878 7.56641 26.6367 7.33854 25.8945 7.07812C25.1654 6.81771 24.3971 6.54427 23.5898 6.25781C22.7956 5.97135 21.9948 5.6849 21.1875 5.39844C20.3932 5.09896 19.638 4.81901 18.9219 4.55859C18.2188 4.28516 17.6003 4.04427 17.0664 3.83594C16.8971 3.77083 16.7409 3.72526 16.5977 3.69922C16.4544 3.66016 16.3307 3.64062 16.2266 3.64062C16.1094 3.64062 15.9792 3.66016 15.8359 3.69922C15.7057 3.72526 15.5495 3.77083 15.3672 3.83594C14.8464 4.04427 14.2279 4.27865 13.5117 4.53906C12.8086 4.79948 12.0534 5.07292 11.2461 5.35938C10.4388 5.63281 9.625 5.91276 8.80469 6.19922C7.9974 6.48568 7.22917 6.76562 6.5 7.03906C5.78385 7.3125 5.14583 7.55339 4.58594 7.76172C4.32552 7.86589 4.15625 7.99609 4.07812 8.15234C4 8.30859 3.96094 8.54948 3.96094 8.875V21.6484C3.96094 23.0417 4.14323 24.2201 4.50781 25.1836C4.88542 26.1471 5.4974 27.0456 6.34375 27.8789C7.20312 28.6992 8.34896 29.5716 9.78125 30.4961C11.2135 31.4206 12.9909 32.5273 15.1133 33.8164C15.3867 33.9727 15.6016 34.0768 15.7578 34.1289C15.9271 34.194 16.0833 34.2266 16.2266 34.2266ZM9.58594 25.4375V18.1523C9.58594 16.9023 10.1198 16.2318 11.1875 16.1406V14.0117C11.1875 12.319 11.6497 10.9518 12.5742 9.91016C13.4987 8.86849 14.7227 8.34766 16.2461 8.34766C17.7435 8.34766 18.9544 8.86849 19.8789 9.91016C20.8164 10.9518 21.2852 12.319 21.2852 14.0117V16.1406C22.3529 16.2318 22.8867 16.9023 22.8867 18.1523V25.4375C22.8867 26.7917 22.2487 27.4688 20.9727 27.4688H11.5C10.224 27.4688 9.58594 26.7917 9.58594 25.4375ZM13.2383 16.1016H19.2539V13.8164C19.2539 12.7617 18.974 11.9154 18.4141 11.2773C17.8672 10.6393 17.1445 10.3203 16.2461 10.3203C15.3346 10.3203 14.6055 10.6393 14.0586 11.2773C13.5117 11.9154 13.2383 12.7617 13.2383 13.8164V16.1016Z" fill="#1F2022"></path></svg>