<svg fill="none" height="27" viewBox="0 0 154 27" width="154" xmlns="http://www.w3.org/2000/svg" data-v-7decf3e7=""><mask id="mask0_1955_453" height="27" maskUnits="userSpaceOnUse" style="mask-type:alpha;" width="27" x="-1" y="0" data-v-7decf3e7=""><rect fill="#D9D9D9" height="25.6282" width="25.6282" x="-0.0078125" y="0.937988" data-v-7decf3e7=""></rect></mask><g mask="url(#mask0_1955_453)" data-v-7decf3e7=""><path d="M7.44049 24.2663L7.44238 24.2665C7.81178 24.3029 8.1574 24.2068 8.45508 24.0134L12.8066 21.3878L17.158 24.0134C17.4557 24.2068 17.8013 24.3029 18.1707 24.2665L18.1726 24.2663C18.4645 24.237 18.7438 24.1468 18.9972 23.9886L19.0263 23.9704L19.0537 23.9498C19.3033 23.7624 19.4972 23.5212 19.6249 23.2347C19.7803 22.8856 19.7865 22.521 19.6975 22.1814L18.5532 17.2162L22.3952 13.8609C22.6682 13.6427 22.8817 13.3455 22.9607 12.9686C23.0245 12.6641 23.0091 12.3552 22.9097 12.0571C22.812 11.7639 22.6429 11.5066 22.4053 11.3024L22.4043 11.3015C22.1386 11.0741 21.82 10.9584 21.5071 10.9065L21.4761 10.9013L21.4447 10.8986L16.3478 10.4597L14.375 5.75875C14.2383 5.42153 14.0027 5.14414 13.6755 4.96269C13.4138 4.8175 13.1211 4.72891 12.8066 4.72891C12.492 4.72891 12.1993 4.8175 11.9376 4.96269C11.6104 5.14413 11.3749 5.42151 11.2381 5.75871L9.26527 10.4597L4.16842 10.8986L4.13705 10.9013L4.10599 10.9065C3.79309 10.9584 3.47448 11.0741 3.20884 11.3015L3.20781 11.3024C2.9702 11.5066 2.80113 11.7639 2.70339 12.0571C2.60403 12.3552 2.58857 12.6641 2.65241 12.9686C2.7314 13.3455 2.94494 13.6427 3.21794 13.8609L7.05993 17.2162L5.91559 22.1814C5.82658 22.521 5.83281 22.8856 5.98826 23.2347C6.11587 23.5212 6.30978 23.7624 6.55938 23.9498L6.58683 23.9704L6.61594 23.9886C6.86927 24.1468 7.14863 24.237 7.44049 24.2663Z" fill="#FFDD00" stroke="black" stroke-width="1.60176" data-v-7decf3e7=""></path></g><mask id="mask1_1955_453" height="27" maskUnits="userSpaceOnUse" style="mask-type:alpha;" width="26" x="32" y="0" data-v-7decf3e7=""><rect fill="#D9D9D9" height="25.6282" width="25.6282" x="32.0273" y="0.937988" data-v-7decf3e7=""></rect></mask><g mask="url(#mask1_1955_453)" data-v-7decf3e7=""><path d="M39.4747 24.2663L39.4766 24.2665C39.846 24.3029 40.1916 24.2068 40.4893 24.0134L44.8407 21.3878L49.1922 24.0134C49.4899 24.2068 49.8355 24.3029 50.2049 24.2665L50.2068 24.2663C50.4987 24.237 50.778 24.1468 51.0314 23.9886L51.0605 23.9704L51.0879 23.9498C51.3375 23.7624 51.5314 23.5212 51.659 23.2347C51.8145 22.8856 51.8207 22.521 51.7317 22.1814L50.5874 17.2162L54.4293 13.8609C54.7024 13.6427 54.9159 13.3455 54.9949 12.9686C55.0587 12.6641 55.0433 12.3552 54.9439 12.0571C54.8462 11.7639 54.6771 11.5066 54.4395 11.3024L54.4385 11.3015C54.1728 11.0741 53.8542 10.9584 53.5413 10.9065L53.5102 10.9013L53.4789 10.8986L48.382 10.4597L46.4092 5.75875C46.2724 5.42153 46.0369 5.14414 45.7097 4.96269C45.448 4.8175 45.1553 4.72891 44.8407 4.72891C44.5262 4.72891 44.2335 4.8175 43.9717 4.96269C43.6446 5.14413 43.409 5.42151 43.2723 5.75871L41.2995 10.4597L36.2026 10.8986L36.1712 10.9013L36.1402 10.9065C35.8273 10.9584 35.5087 11.0741 35.243 11.3015L35.242 11.3024C35.0044 11.5066 34.8353 11.7639 34.7376 12.0571C34.6382 12.3552 34.6228 12.6641 34.6866 12.9686C34.7656 13.3455 34.9791 13.6427 35.2521 13.8609L39.0941 17.2162L37.9498 22.1814C37.8608 22.521 37.867 22.8856 38.0224 23.2347C38.15 23.5212 38.344 23.7624 38.5936 23.9498L38.621 23.9704L38.6501 23.9886C38.9035 24.1468 39.1828 24.237 39.4747 24.2663Z" fill="#FFDD00" stroke="black" stroke-width="1.60176" data-v-7decf3e7=""></path></g><mask id="mask2_1955_453" height="27" maskUnits="userSpaceOnUse" style="mask-type:alpha;" width="26" x="64" y="0" data-v-7decf3e7=""><rect fill="#D9D9D9" height="25.6282" width="25.6282" x="64.0625" y="0.937988" data-v-7decf3e7=""></rect></mask><g mask="url(#mask2_1955_453)" data-v-7decf3e7=""><path d="M71.5108 24.2663L71.5127 24.2665C71.8821 24.3029 72.2277 24.2068 72.5254 24.0134L76.8769 21.3878L81.2283 24.0134C81.526 24.2068 81.8716 24.3029 82.241 24.2665L82.2429 24.2663C82.5348 24.237 82.8142 24.1468 83.0675 23.9886L83.0966 23.9704L83.124 23.9498C83.3736 23.7624 83.5676 23.5212 83.6952 23.2347C83.8506 22.8856 83.8568 22.521 83.7678 22.1814L82.6235 17.2162L86.4655 13.8609C86.7385 13.6427 86.952 13.3455 87.031 12.9686C87.0949 12.6641 87.0794 12.3552 86.98 12.0571C86.8823 11.7639 86.7132 11.5066 86.4756 11.3024L86.4746 11.3015C86.2089 11.0741 85.8903 10.9584 85.5774 10.9065L85.5464 10.9013L85.515 10.8986L80.4182 10.4597L78.4453 5.75875C78.3086 5.42153 78.073 5.14414 77.7459 4.96269C77.4841 4.8175 77.1914 4.72891 76.8769 4.72891C76.5623 4.72891 76.2696 4.8175 76.0079 4.96269C75.6808 5.14413 75.4452 5.42151 75.3084 5.75871L73.3356 10.4597L68.2387 10.8986L68.2074 10.9013L68.1763 10.9065C67.8634 10.9584 67.5448 11.0741 67.2792 11.3015L67.2781 11.3024C67.0405 11.5066 66.8714 11.7639 66.7737 12.0571C66.6743 12.3552 66.6589 12.6641 66.7227 12.9686C66.8017 13.3455 67.0153 13.6427 67.2883 13.8609L71.1302 17.2162L69.9859 22.1814C69.8969 22.521 69.9031 22.8856 70.0586 23.2347C70.1862 23.5212 70.3801 23.7624 70.6297 23.9498L70.6571 23.9704L70.6862 23.9886C70.9396 24.1468 71.2189 24.237 71.5108 24.2663Z" fill="#FFDD00" stroke="black" stroke-width="1.60176" data-v-7decf3e7=""></path></g><mask id="mask3_1955_453" height="27" maskUnits="userSpaceOnUse" style="mask-type:alpha;" width="26" x="96" y="0" data-v-7decf3e7=""><rect fill="#D9D9D9" height="25.6282" width="25.6282" x="96.0977" y="0.937988" data-v-7decf3e7=""></rect></mask><g mask="url(#mask3_1955_453)" data-v-7decf3e7=""><path d="M103.545 24.2663L103.547 24.2665C103.916 24.3029 104.262 24.2068 104.56 24.0134L108.911 21.3878L113.263 24.0134C113.56 24.2068 113.906 24.3029 114.275 24.2665L114.277 24.2663C114.569 24.237 114.848 24.1468 115.102 23.9886L115.131 23.9704L115.158 23.9498C115.408 23.7624 115.602 23.5212 115.729 23.2347C115.885 22.8856 115.891 22.521 115.802 22.1814L114.658 17.2162L118.5 13.8609C118.773 13.6427 118.986 13.3455 119.065 12.9686C119.129 12.6641 119.114 12.3552 119.014 12.0571C118.916 11.7639 118.747 11.5066 118.51 11.3024L118.509 11.3015C118.243 11.0741 117.925 10.9584 117.612 10.9065L117.581 10.9013L117.549 10.8986L112.452 10.4597L110.479 5.75875C110.343 5.42153 110.107 5.14414 109.78 4.96269C109.518 4.8175 109.226 4.72891 108.911 4.72891C108.596 4.72891 108.304 4.8175 108.042 4.96269C107.715 5.14413 107.479 5.42151 107.343 5.75871L105.37 10.4597L100.273 10.8986L100.242 10.9013L100.21 10.9065C99.8976 10.9584 99.579 11.0741 99.3133 11.3015L99.3123 11.3024C99.0747 11.5066 98.9056 11.7639 98.8079 12.0571C98.7085 12.3552 98.6931 12.6641 98.7569 12.9686C98.8359 13.3455 99.0494 13.6427 99.3224 13.8609L103.164 17.2162L102.02 22.1814C101.931 22.521 101.937 22.8856 102.093 23.2347C102.22 23.5212 102.414 23.7624 102.664 23.9498L102.691 23.9704L102.72 23.9886C102.974 24.1468 103.253 24.237 103.545 24.2663Z" fill="#FFDD00" stroke="black" stroke-width="1.60176" data-v-7decf3e7=""></path></g><mask id="mask4_1955_453" height="27" maskUnits="userSpaceOnUse" style="mask-type:alpha;" width="26" x="128" y="0" data-v-7decf3e7=""><rect fill="#D9D9D9" height="25.6282" width="25.6282" x="128.133" y="0.937988" data-v-7decf3e7=""></rect></mask><g mask="url(#mask4_1955_453)" data-v-7decf3e7=""><path d="M135.581 24.2663L135.583 24.2665C135.953 24.3029 136.298 24.2068 136.596 24.0134L140.947 21.3878L145.299 24.0134C145.597 24.2068 145.942 24.3029 146.312 24.2665L146.313 24.2663C146.605 24.237 146.885 24.1468 147.138 23.9886L147.167 23.9704L147.195 23.9498C147.444 23.7624 147.638 23.5212 147.766 23.2347C147.921 22.8856 147.927 22.521 147.838 22.1814L146.694 17.2162L150.536 13.8609C150.809 13.6427 151.023 13.3455 151.102 12.9686C151.165 12.6641 151.15 12.3552 151.051 12.0571C150.953 11.7639 150.784 11.5066 150.546 11.3024L150.545 11.3015C150.28 11.0741 149.961 10.9584 149.648 10.9065L149.617 10.9013L149.586 10.8986L144.489 10.4597L142.516 5.75875C142.379 5.42153 142.144 5.14414 141.816 4.96269C141.555 4.8175 141.262 4.72891 140.947 4.72891C140.633 4.72891 140.34 4.8175 140.078 4.96269C139.751 5.14413 139.516 5.42151 139.379 5.75871L137.406 10.4597L132.309 10.8986L132.278 10.9013L132.247 10.9065C131.934 10.9584 131.615 11.0741 131.35 11.3015L131.349 11.3024C131.111 11.5066 130.942 11.7639 130.844 12.0571C130.745 12.3552 130.729 12.6641 130.793 12.9686C130.872 13.3455 131.086 13.6427 131.359 13.8609L135.201 17.2162L134.056 22.1814C133.967 22.521 133.974 22.8856 134.129 23.2347C134.257 23.5212 134.451 23.7624 134.7 23.9498L134.728 23.9704L134.757 23.9886C135.01 24.1468 135.29 24.237 135.581 24.2663Z" fill="white" stroke="black" stroke-width="1.60176" data-v-7decf3e7=""></path></g></svg>