<svg fill="none" height="39" viewBox="0 0 40 39" width="40" xmlns="http://www.w3.org/2000/svg" data-v-7decf3e7=""><mask id="mask0_1955_475" height="39" maskUnits="userSpaceOnUse" style="mask-type:alpha;" width="40" x="0" y="0" data-v-7decf3e7=""><rect fill="#D9D9D9" height="38.4422" width="38.4422" x="0.666992" y="0.237305" data-v-7decf3e7=""></rect></mask><g mask="url(#mask0_1955_475)" data-v-7decf3e7=""><path d="M34.3036 17.8971V31.472C34.3036 32.1127 34.0634 32.6733 33.5828 33.1539C33.1023 33.6344 32.5417 33.8747 31.901 33.8747H7.83453C7.19383 33.8747 6.63321 33.6344 6.15268 33.1539C5.67216 32.6733 5.43189 32.1127 5.43189 31.472V17.8971C4.6844 17.2564 4.19053 16.4689 3.95026 15.5345C3.71 14.6001 3.7367 13.6658 4.03035 12.7314L5.75224 7.32548C5.96581 6.60469 6.33956 6.04407 6.87348 5.64363C7.4074 5.24319 8.0214 5.04297 8.7155 5.04297H30.8598C31.6073 5.04297 32.2614 5.24986 32.822 5.66365C33.3826 6.07744 33.7697 6.63138 33.9833 7.32548L35.7452 12.7314C36.0389 13.6658 36.0589 14.6001 35.8053 15.5345C35.5517 16.4689 35.0511 17.2564 34.3036 17.8971ZM23.4917 16.6557C24.2659 16.6557 24.92 16.4021 25.4539 15.8949C25.9878 15.3877 26.2014 14.7737 26.0946 14.0529L25.0935 7.44561H21.0891V14.0529C21.0891 14.747 21.316 15.3543 21.7698 15.8749C22.2237 16.3954 22.7976 16.6557 23.4917 16.6557ZM16.0035 16.6557C16.751 16.6557 17.385 16.4021 17.9056 15.8949C18.4262 15.3877 18.6865 14.7737 18.6865 14.0529V7.44561H14.6821L13.681 14.0529C13.5742 14.747 13.761 15.3543 14.2416 15.8749C14.7221 16.3954 15.3094 16.6557 16.0035 16.6557ZM8.7155 16.6557C9.3562 16.6557 9.91015 16.4355 10.3773 15.995C10.8445 15.5545 11.1181 15.0139 11.1982 14.3732L12.2394 7.44561H8.23497L6.39295 13.292C6.12599 14.1196 6.23277 14.8871 6.7133 15.5946C7.19383 16.302 7.86123 16.6557 8.7155 16.6557ZM31.02 16.6557C31.8743 16.6557 32.5484 16.3087 33.0422 15.6146C33.5361 14.9205 33.6496 14.1463 33.3826 13.292L31.5406 7.44561H27.5362L28.5773 14.3732C28.6574 15.0139 28.931 15.5545 29.3982 15.995C29.8654 16.4355 30.406 16.6557 31.02 16.6557ZM7.83453 31.472H31.901V19.0183C31.9277 19.045 31.8409 19.0584 31.6407 19.0584H31.02C30.3526 19.0584 29.7186 18.9182 29.1179 18.6379C28.5173 18.3576 27.9233 17.9238 27.336 17.3365C26.9088 17.8704 26.3749 18.2909 25.7342 18.5979C25.0935 18.9049 24.3861 19.0584 23.6119 19.0584C22.811 19.0584 22.1236 18.9449 21.5496 18.718C20.9756 18.4911 20.4217 18.1107 19.8878 17.5767C19.4873 18.0573 18.9801 18.4243 18.3661 18.678C17.7521 18.9316 17.058 19.0584 16.2838 19.0584C15.4562 19.0584 14.7221 18.9115 14.0814 18.6179C13.4407 18.3242 12.8934 17.8971 12.4396 17.3365C11.7989 17.8971 11.1715 18.3242 10.5575 18.6179C9.94352 18.9115 9.32951 19.0584 8.7155 19.0584H8.17491C8.00138 19.0584 7.88792 19.045 7.83453 19.0183V31.472Z" fill="#1C1B1F" data-v-7decf3e7=""></path></g></svg>