<svg class="xs:w-36 xs:h-36" width="39" height="39" viewBox="0 0 39 39" fill="none" xmlns="http://www.w3.org/2000/svg"> <path d="M19.2852 38.6445C16.681 38.6445 14.2331 38.1432 11.9414 37.1406C9.66276 36.151 7.65104 34.7839 5.90625 33.0391C4.16146 31.2943 2.78776 29.2826 1.78516 27.0039C0.795573 24.7122 0.300781 22.2643 0.300781 19.6602C0.300781 17.069 0.795573 14.6276 1.78516 12.3359C2.77474 10.0443 4.14193 8.02604 5.88672 6.28125C7.64453 4.53646 9.66276 3.16927 11.9414 2.17969C14.2331 1.1901 16.6745 0.695312 19.2656 0.695312C21.8568 0.695312 24.2982 1.1901 26.5898 2.17969C28.8815 3.16927 30.8997 4.53646 32.6445 6.28125C34.3893 8.02604 35.7565 10.0443 36.7461 12.3359C37.7487 14.6276 38.25 17.069 38.25 19.6602C38.25 22.2643 37.7552 24.7122 36.7656 27.0039C35.776 29.2826 34.4089 31.2943 32.6641 33.0391C30.9193 34.7839 28.901 36.151 26.6094 37.1406C24.3177 38.1432 21.8763 38.6445 19.2852 38.6445ZM19.2852 35.168C21.4336 35.168 23.4453 34.7643 25.3203 33.957C27.1953 33.1628 28.8424 32.056 30.2617 30.6367C31.681 29.2174 32.7878 27.5703 33.582 25.6953C34.3763 23.8203 34.7734 21.8086 34.7734 19.6602C34.7734 17.5117 34.3763 15.5 33.582 13.625C32.7878 11.75 31.681 10.1029 30.2617 8.68359C28.8424 7.26432 27.1888 6.15755 25.3008 5.36328C23.4258 4.56901 21.4141 4.17188 19.2656 4.17188C17.1172 4.17188 15.1055 4.56901 13.2305 5.36328C11.3685 6.15755 9.72786 7.26432 8.30859 8.68359C6.88932 10.1029 5.78255 11.75 4.98828 13.625C4.19401 15.5 3.79688 17.5117 3.79688 19.6602C3.79688 21.8086 4.19401 23.8203 4.98828 25.6953C5.78255 27.5703 6.88932 29.2174 8.30859 30.6367C9.72786 32.056 11.375 33.1628 13.25 33.957C15.125 34.7643 17.1367 35.168 19.2852 35.168ZM14.8906 11.5742C15.8802 11.5742 16.7461 11.8346 17.4883 12.3555C18.2435 12.8633 18.8424 13.5273 19.2852 14.3477C19.7279 13.5273 20.3268 12.8633 21.082 12.3555C21.8372 11.8346 22.7031 11.5742 23.6797 11.5742C25.2292 11.5742 26.5052 12.1016 27.5078 13.1562C28.5234 14.2109 29.0312 15.5521 29.0312 17.1797C29.0312 18.1823 28.8359 19.1523 28.4453 20.0898C28.0677 21.0143 27.5599 21.8997 26.9219 22.7461C26.2969 23.5924 25.5938 24.3932 24.8125 25.1484C24.0443 25.8906 23.263 26.5677 22.4688 27.1797C21.6745 27.7917 20.9258 28.3255 20.2227 28.7812C20.0794 28.8724 19.9232 28.9701 19.7539 29.0742C19.5846 29.1654 19.4414 29.2109 19.3242 29.2109C19.194 29.2109 19.0378 29.1654 18.8555 29.0742C18.6732 28.9701 18.5039 28.8724 18.3477 28.7812C17.6445 28.3385 16.8893 27.8112 16.082 27.1992C15.2878 26.5872 14.5 25.9102 13.7188 25.168C12.9505 24.4128 12.2474 23.612 11.6094 22.7656C10.9844 21.9193 10.4831 21.0273 10.1055 20.0898C9.72786 19.1523 9.53906 18.1823 9.53906 17.1797C9.53906 15.5521 10.0404 14.2109 11.043 13.1562C12.0586 12.1016 13.3411 11.5742 14.8906 11.5742Z" fill="#1F2022"></path> </svg>