<svg fill="none" height="21" viewBox="0 0 20 21" width="20" xmlns="http://www.w3.org/2000/svg" data-v-7decf3e7=""><path clip-rule="evenodd" d="M8.74745 20.0514L8.43354 20.002C8.83827 17.4304 8.23002 15.0314 6.61164 12.8088C4.99327 10.5863 2.89663 9.27067 0.324588 8.86587L0.373984 8.55201C2.94603 8.95681 5.34541 8.34879 7.56876 6.72742C9.79317 5.0993 11.1089 3.00308 11.512 0.441603L11.8259 0.491008C11.4212 3.06261 12.0295 5.46163 13.6478 7.68417C15.2662 9.9067 17.3628 11.2223 19.9349 11.6271L19.8855 11.941C17.3134 11.5362 14.9141 12.1442 12.6913 13.7622C10.4679 15.3836 9.15218 17.4798 8.74745 20.0514Z" fill="white" fill-rule="evenodd" data-v-7decf3e7=""></path></svg>